####
#
#	OBJ File Generated by LightWave3D
#	LightWave3D OBJ Export v2.3
#
####
o Calculator 02 obj.obj
mtllib Calculator 02 obj.mtl
g default
v -0.333234 0.004 0.38991
v -0.333234 0.004 -0.41991
v -0.333234 0.01 0.38991
v -0.333234 0.01 -0.41991
v -0.333234 0.016 0.38991
v -0.333234 0.016 -0.41991
v -0.332693 0.00198104 0.389837
v -0.332693 0.00198104 -0.419837
v -0.332693 0.018019 0.389837
v -0.332693 0.018019 -0.419837
v -0.331273 0.000546074 0.389647
v -0.331273 0.000546074 -0.419647
v -0.331273 0.0194539 0.389647
v -0.331273 0.0194539 -0.419647
v -0.329274 1.73472e-018 0.389379
v -0.329274 1.73472e-018 -0.419379
v -0.329274 0.02 0.389379
v -0.329274 0.02 -0.419379
v -0.327079 0.004 0.412896
v -0.327079 0.004 -0.442896
v -0.327079 0.01 0.412896
v -0.327079 0.01 -0.442896
v -0.327079 0.016 0.412896
v -0.327079 0.016 -0.442896
v -0.326595 0.00198104 0.412613
v -0.326595 0.00198104 -0.442613
v -0.326595 0.018019 0.412613
v -0.326595 0.018019 -0.442613
v -0.325322 0.000546074 0.411869
v -0.325322 0.000546074 -0.441869
v -0.325322 0.0194539 0.411869
v -0.325322 0.0194539 -0.441869
v -0.323532 1.73472e-018 0.410822
v -0.323532 1.73472e-018 -0.440822
v -0.323532 0.02 0.410822
v -0.323532 0.02 -0.440822
v -0.310905 0.004 0.429233
v -0.310905 0.004 -0.459233
v -0.310905 0.01 0.429233
v -0.310905 0.01 -0.459233
v -0.310905 0.016 0.429233
v -0.310905 0.016 -0.459233
v -0.310625 0.00198104 0.428744
v -0.310625 0.00198104 -0.458744
v -0.310625 0.018019 0.428744
v -0.310625 0.018019 -0.458744
v -0.309888 0.000546074 0.427459
v -0.309888 0.000546074 -0.457459
v -0.309888 0.0194539 0.427459
v -0.309888 0.0194539 -0.457459
v -0.308852 1.73472e-018 0.42565
v -0.308852 1.73472e-018 -0.45565
v -0.308852 0.02 0.42565
v -0.308852 0.02 -0.45565
v -0.288149 0.004 0.43545
v -0.288149 0.004 -0.46545
v -0.288149 0.01 0.43545
v -0.288149 0.01 -0.46545
v -0.288149 0.016 0.43545
v -0.288149 0.016 -0.46545
v -0.288078 0.00198104 0.434904
v -0.288078 0.00198104 -0.464904
v -0.288078 0.018019 0.434904
v -0.288078 0.018019 -0.464904
v -0.287889 0.000546074 0.433469
v -0.287889 0.000546074 -0.463469
v -0.287889 0.0194539 0.433469
v -0.287889 0.0194539 -0.463469
v -0.287623 1.73472e-018 0.43145
v -0.287623 1.73472e-018 -0.46145
v -0.287623 0.02 0.43145
v -0.287623 0.02 -0.46145
v 0.287623 1.73472e-018 0.43145
v 0.287623 1.73472e-018 -0.46145
v 0.287623 0.02 0.43145
v 0.287623 0.02 -0.46145
v 0.287889 0.000546074 0.433469
v 0.287889 0.000546074 -0.463469
v 0.287889 0.0194539 0.433469
v 0.287889 0.0194539 -0.463469
v 0.288078 0.00198104 0.434904
v 0.288078 0.00198104 -0.464904
v 0.288078 0.018019 0.434904
v 0.288078 0.018019 -0.464904
v 0.288149 0.004 0.43545
v 0.288149 0.004 -0.46545
v 0.288149 0.01 0.43545
v 0.288149 0.01 -0.46545
v 0.288149 0.016 0.43545
v 0.288149 0.016 -0.46545
v 0.308852 1.73472e-018 0.42565
v 0.308852 1.73472e-018 -0.45565
v 0.308852 0.02 0.42565
v 0.308852 0.02 -0.45565
v 0.309888 0.000546074 0.427459
v 0.309888 0.000546074 -0.457459
v 0.309888 0.0194539 0.427459
v 0.309888 0.0194539 -0.457459
v 0.310625 0.00198104 0.428744
v 0.310625 0.00198104 -0.458744
v 0.310625 0.018019 0.428744
v 0.310625 0.018019 -0.458744
v 0.310905 0.004 0.429233
v 0.310905 0.004 -0.459233
v 0.310905 0.01 0.429233
v 0.310905 0.01 -0.459233
v 0.310905 0.016 0.429233
v 0.310905 0.016 -0.459233
v 0.323532 1.73472e-018 0.410822
v 0.323532 1.73472e-018 -0.440822
v 0.323532 0.02 0.410822
v 0.323532 0.02 -0.440822
v 0.325322 0.000546074 0.411869
v 0.325322 0.000546074 -0.441869
v 0.325322 0.0194539 0.411869
v 0.325322 0.0194539 -0.441869
v 0.326595 0.00198104 0.412613
v 0.326595 0.00198104 -0.442613
v 0.326595 0.018019 0.412613
v 0.326595 0.018019 -0.442613
v 0.327079 0.004 0.412896
v 0.327079 0.004 -0.442896
v 0.327079 0.01 0.412896
v 0.327079 0.01 -0.442896
v 0.327079 0.016 0.412896
v 0.327079 0.016 -0.442896
v 0.329274 1.73472e-018 0.389379
v 0.329274 1.73472e-018 -0.419379
v 0.329274 0.02 0.389379
v 0.329274 0.02 -0.419379
v 0.331273 0.000546074 0.389647
v 0.331273 0.000546074 -0.419647
v 0.331273 0.0194539 0.389647
v 0.331273 0.0194539 -0.419647
v 0.332693 0.00198104 0.389837
v 0.332693 0.00198104 -0.419837
v 0.332693 0.018019 0.389837
v 0.332693 0.018019 -0.419837
v 0.333234 0.004 0.38991
v 0.333234 0.004 -0.41991
v 0.333234 0.01 0.38991
v 0.333234 0.01 -0.41991
v 0.333234 0.016 0.38991
v 0.333234 0.016 -0.41991
vt 0.00983323 0.055044
vt 0.00983323 0.944956
vt 0.0102329 0.0551237
vt 0.0102329 0.944876
vt 0.0112831 0.0553332
vt 0.0112831 0.944667
vt 0.0127608 0.0556279
vt 0.0127608 0.944372
vt 0.0143834 0.0297847
vt 0.0143834 0.970215
vt 0.0147414 0.0300959
vt 0.0147414 0.969904
vt 0.015682 0.0309135
vt 0.015682 0.969086
vt 0.0170056 0.032064
vt 0.0170056 0.967936
vt 0.0263402 0.0118319
vt 0.0263402 0.988168
vt 0.0265474 0.0123694
vt 0.0265474 0.987631
vt 0.027092 0.0137818
vt 0.027092 0.986218
vt 0.0278582 0.015769
vt 0.0278582 0.984231
vt 0.0431632 0.005
vt 0.0431632 0.995
vt 0.0432163 0.00560007
vt 0.0432163 0.9944
vt 0.0433558 0.00717698
vt 0.0433558 0.992823
vt 0.0435521 0.00939561
vt 0.0435521 0.990604
vt 0.468818 0.00939561
vt 0.468818 0.990604
vt 0.469014 0.00717698
vt 0.469014 0.992823
vt 0.469153 0.00560007
vt 0.469153 0.9944
vt 0.469207 0.005
vt 0.469207 0.995
vt 0.484511 0.015769
vt 0.484511 0.984231
vt 0.485278 0.0137818
vt 0.485278 0.986218
vt 0.485822 0.0123694
vt 0.485822 0.987631
vt 0.48603 0.0118319
vt 0.48603 0.988168
vt 0.495364 0.032064
vt 0.495364 0.967936
vt 0.496688 0.0309135
vt 0.496688 0.969086
vt 0.497628 0.0300959
vt 0.497628 0.969904
vt 0.497986 0.0297847
vt 0.497986 0.970215
vt 0.499609 0.0556279
vt 0.499609 0.944372
vt 0.501087 0.0553332
vt 0.501087 0.944667
vt 0.502137 0.0551237
vt 0.502137 0.944876
vt 0.502537 0.055044
vt 0.502537 0.944956
vt 0.507464 0.055044
vt 0.507464 0.944956
vt 0.507863 0.0551237
vt 0.507863 0.944876
vt 0.508913 0.0553332
vt 0.508913 0.944667
vt 0.510391 0.0556279
vt 0.510391 0.944372
vt 0.512014 0.0297847
vt 0.512014 0.970215
vt 0.512372 0.0300959
vt 0.512372 0.969904
vt 0.513312 0.0309135
vt 0.513312 0.969086
vt 0.514636 0.032064
vt 0.514636 0.967936
vt 0.523971 0.0118319
vt 0.523971 0.988168
vt 0.524178 0.0123694
vt 0.524178 0.987631
vt 0.524722 0.0137818
vt 0.524722 0.986218
vt 0.525488 0.015769
vt 0.525488 0.984231
vt 0.540793 0.005
vt 0.540793 0.995
vt 0.540847 0.00560007
vt 0.540847 0.9944
vt 0.540986 0.00717698
vt 0.540986 0.992823
vt 0.541182 0.00939561
vt 0.541182 0.990604
vt 0.966448 0.00939561
vt 0.966448 0.990604
vt 0.966644 0.00717698
vt 0.966644 0.992823
vt 0.966784 0.00560007
vt 0.966784 0.9944
vt 0.966837 0.005
vt 0.966837 0.995
vt 0.982142 0.015769
vt 0.982142 0.984231
vt 0.982908 0.0137818
vt 0.982908 0.986218
vt 0.983453 0.0123694
vt 0.983453 0.987631
vt 0.98366 0.0118319
vt 0.98366 0.988168
vt 0.992994 0.032064
vt 0.992994 0.967936
vt 0.994318 0.0309135
vt 0.994318 0.969086
vt 0.995259 0.0300959
vt 0.995259 0.969904
vt 0.995617 0.0297847
vt 0.995617 0.970215
vt 0.997239 0.0556279
vt 0.997239 0.944372
vt 0.998717 0.0553332
vt 0.998717 0.944667
vt 0.999767 0.0551237
vt 0.999767 0.944876
vt 1.00017 0.055044
vt 1.00017 0.944956
vn -0.991456 0 0.130442
vn -0.991456 0 -0.130442
vn -0.982835 -0.131589 -0.129307
vn -0.982835 0.131589 0.129307
vn -0.982835 0.13159 -0.129307
vn -0.982835 -0.13159 0.129307
vn -0.867321 0 0.497749
vn -0.867321 0 -0.497749
vn -0.859362 0.13524 0.49316
vn -0.859362 -0.13524 -0.49316
vn -0.859362 -0.135241 0.49316
vn -0.859362 0.135241 -0.49316
vn -0.858011 0.501076 0.112876
vn -0.85801 -0.501077 0.112876
vn -0.85801 -0.501077 -0.112876
vn -0.858009 0.501078 -0.112876
vn -0.74535 0.511471 0.427609
vn -0.74535 -0.511472 0.427609
vn -0.74535 -0.511472 -0.42761
vn -0.74535 0.511473 -0.427609
vn -0.50429 0 0.863534
vn -0.50429 0 -0.863534
vn -0.499629 -0.135884 0.855515
vn -0.499629 0.135884 -0.855515
vn -0.499629 -0.135887 -0.855515
vn -0.499629 0.135887 0.855515
vn -0.496678 -0.865473 0.0653326
vn -0.496678 0.865473 0.0653324
vn -0.496677 0.865473 -0.0653322
vn -0.496677 -0.865473 -0.0653322
vn -0.432941 0.513143 -0.741111
vn -0.432941 -0.513145 -0.74111
vn -0.432941 -0.513147 0.741109
vn -0.43294 0.513149 0.741108
vn -0.425624 -0.871365 0.244063
vn -0.425624 0.871365 0.244063
vn -0.425623 -0.871366 -0.244063
vn -0.425623 0.871366 -0.244063
vn -0.246744 -0.87229 -0.42217
vn -0.246743 0.872291 -0.422169
vn -0.246742 0.872292 0.422167
vn -0.246742 -0.872292 0.422166
vn -0.174072 -0.984467 0.0228947
vn -0.174071 0.984467 -0.0228946
vn -0.174071 -0.984467 -0.0228946
vn -0.174071 0.984467 0.0228946
vn -0.148259 -0.985291 -0.0849796
vn -0.148259 -0.985291 0.0849794
vn -0.148259 0.985291 0.0849795
vn -0.148259 0.985291 -0.0849793
vn -0.132953 0 0.991122
vn -0.132953 0 -0.991122
vn -0.131777 -0.132806 0.982343
vn -0.131777 0.132806 -0.982343
vn -0.131777 -0.132808 -0.982343
vn -0.131777 0.132808 0.982343
vn -0.114822 -0.504256 -0.855886
vn -0.114822 0.504254 -0.855888
vn -0.114822 -0.504257 0.855886
vn -0.114822 0.504258 0.855885
vn -0.0858473 -0.985431 -0.14682
vn -0.0858472 0.985431 0.146819
vn -0.0858468 -0.985431 0.146818
vn -0.0858467 0.985431 -0.146818
vn -0.0661968 -0.867299 -0.493367
vn -0.0661964 0.867299 -0.493366
vn -0.0661961 -0.867301 0.493364
vn -0.066196 0.8673 0.493364
vn -0.0231366 -0.984752 -0.17242
vn -0.0231366 0.984752 0.17242
vn -0.0231364 -0.984752 0.172419
vn -0.0231364 0.984752 -0.172419
vn 0.0231364 0.984752 0.172419
vn 0.0231364 -0.984752 -0.172419
vn 0.0231366 0.984752 -0.17242
vn 0.0231366 -0.984752 0.17242
vn 0.066196 0.8673 -0.493364
vn 0.066196 0.867301 0.493364
vn 0.0661961 -0.867301 -0.493364
vn 0.0661968 -0.867299 0.493367
vn 0.0858467 0.985431 0.146818
vn 0.0858468 -0.985431 -0.146818
vn 0.0858472 0.985431 -0.146819
vn 0.0858473 -0.985431 0.14682
vn 0.114822 0.504258 -0.855885
vn 0.114822 -0.504257 -0.855886
vn 0.114822 0.504257 0.855886
vn 0.114822 -0.504256 0.855886
vn 0.131777 0.132808 -0.982343
vn 0.131777 -0.132808 0.982343
vn 0.131777 -0.132806 -0.982343
vn 0.131777 0.132806 0.982343
vn 0.132953 0 0.991122
vn 0.132953 0 -0.991122
vn 0.148259 0.985291 0.0849793
vn 0.148259 0.985291 -0.0849795
vn 0.148259 -0.985291 -0.0849794
vn 0.148259 -0.985291 0.0849796
vn 0.174071 0.984467 -0.0228946
vn 0.174071 -0.984467 0.0228946
vn 0.174071 0.984467 0.0228946
vn 0.174072 -0.984467 -0.0228947
vn 0.246742 -0.872292 -0.422166
vn 0.246742 0.872293 0.422166
vn 0.246742 0.872292 -0.422167
vn 0.246744 -0.87229 0.42217
vn 0.425623 -0.871366 0.244063
vn 0.425624 0.871365 0.244063
vn 0.425624 0.871365 -0.244063
vn 0.425624 -0.871365 -0.244063
vn 0.43294 0.513149 -0.741108
vn 0.432941 -0.513147 -0.741109
vn 0.432941 0.513146 0.741109
vn 0.432941 -0.513145 0.74111
vn 0.496677 -0.865473 0.0653322
vn 0.496678 0.865473 -0.0653324
vn 0.496678 0.865473 0.0653326
vn 0.496678 -0.865473 -0.0653326
vn 0.499629 -0.135887 0.855515
vn 0.499629 0.135887 -0.855515
vn 0.499629 0.135884 0.855515
vn 0.499629 -0.135884 -0.855515
vn 0.50429 0 0.863534
vn 0.50429 0 -0.863534
vn 0.74535 -0.511472 0.42761
vn 0.74535 0.511472 0.427609
vn 0.74535 -0.511472 -0.427609
vn 0.74535 0.511471 -0.427609
vn 0.85801 -0.501077 0.112876
vn 0.85801 -0.501077 -0.112876
vn 0.85801 0.501077 0.112876
vn 0.858011 0.501076 -0.112876
vn 0.859362 -0.135241 -0.49316
vn 0.859362 0.135241 0.49316
vn 0.859362 -0.13524 0.49316
vn 0.859362 0.13524 -0.49316
vn 0.867321 0 0.497749
vn 0.867321 0 -0.497749
vn 0.982835 0.13159 0.129307
vn 0.982835 -0.13159 -0.129307
vn 0.982835 -0.131589 0.129307
vn 0.982835 0.131589 -0.129307
vn 0.991456 0 0.130442
vn 0.991456 0 -0.130442
usemtl Calculator
s 1
f 75/33/73 93/41/81 111/49/95 129/57/101 130/58/99 112/50/96 94/42/83 76/34/75 72/32/72 54/24/64 36/16/50 18/8/44 17/7/46 35/15/49 53/23/62 71/31/70
f 126/56/136 120/54/128 138/62/132 144/64/142
f 134/60/116 138/62/132 120/54/128 116/52/109
f 108/48/120 102/46/111 120/54/128 126/56/136
f 116/52/109 120/54/128 102/46/111 98/44/105
f 90/40/89 84/38/85 102/46/111 108/48/120
f 98/44/105 102/46/111 84/38/85 80/36/77
f 60/26/54 64/28/58 84/38/85 90/40/89
f 80/36/77 84/38/85 64/28/58 68/30/66
f 6/2/5 10/4/16 28/12/20 24/10/12
f 32/14/38 28/12/20 10/4/16 14/6/29
f 24/10/12 28/12/20 46/20/31 42/18/24
f 50/22/40 46/20/31 28/12/20 32/14/38
f 42/18/24 46/20/31 64/28/58 60/26/54
f 68/30/66 64/28/58 46/20/31 50/22/40
f 5/1/4 9/3/13 10/4/16 6/2/5
f 14/6/29 10/4/16 9/3/13 13/5/28
f 59/25/56 63/27/60 45/19/34 41/17/26
f 49/21/41 45/19/34 63/27/60 67/29/68
f 41/17/26 45/19/34 27/11/17 23/9/9
f 31/13/36 27/11/17 45/19/34 49/21/41
f 23/9/9 27/11/17 9/3/13 5/1/4
f 13/5/28 9/3/13 27/11/17 31/13/36
f 144/64/142 138/62/132 137/61/131 143/63/139
f 133/59/117 137/61/131 138/62/132 134/60/116
f 89/39/92 83/37/87 63/27/60 59/25/56
f 67/29/68 63/27/60 83/37/87 79/35/78
f 53/23/62 49/21/41 67/29/68 71/31/70
f 35/15/49 31/13/36 49/21/41 53/23/62
f 17/7/46 13/5/28 31/13/36 35/15/49
f 18/8/44 14/6/29 13/5/28 17/7/46
f 36/16/50 32/14/38 14/6/29 18/8/44
f 54/24/64 50/22/40 32/14/38 36/16/50
f 72/32/72 68/30/66 50/22/40 54/24/64
f 76/34/75 80/36/77 68/30/66 72/32/72
f 94/42/83 98/44/105 80/36/77 76/34/75
f 112/50/96 116/52/109 98/44/105 94/42/83
f 130/58/99 134/60/116 116/52/109 112/50/96
f 129/57/101 133/59/117 134/60/116 130/58/99
f 111/49/95 115/51/108 133/59/117 129/57/101
f 137/61/131 133/59/117 115/51/108 119/53/126
f 93/41/81 97/43/104 115/51/108 111/49/95
f 119/53/126 115/51/108 97/43/104 101/45/113
f 75/33/73 79/35/78 97/43/104 93/41/81
f 101/45/113 97/43/104 79/35/78 83/37/87
f 71/31/70 67/29/68 79/35/78 75/33/73
f 143/63/139 137/61/131 119/53/126 125/55/134
f 125/55/134 119/53/126 101/45/113 107/47/121
f 107/47/121 101/45/113 83/37/87 89/39/92
f 16/72/45 34/80/47 52/88/61 70/96/69 74/98/74 92/106/82 110/114/97 128/122/102 127/121/100 109/113/98 91/105/84 73/97/76 69/95/71 51/87/63 33/79/48 15/71/43
f 33/79/48 29/77/35 11/69/27 15/71/43
f 7/67/14 11/69/27 29/77/35 25/75/18
f 51/87/63 47/85/42 29/77/35 33/79/48
f 25/75/18 29/77/35 47/85/42 43/83/33
f 69/95/71 65/93/67 47/85/42 51/87/63
f 43/83/33 47/85/42 65/93/67 61/91/59
f 73/97/76 77/99/80 65/93/67 69/95/71
f 61/91/59 65/93/67 77/99/80 81/101/88
f 91/105/84 95/107/106 77/99/80 73/97/76
f 81/101/88 77/99/80 95/107/106 99/109/114
f 109/113/98 113/115/107 95/107/106 91/105/84
f 99/109/114 95/107/106 113/115/107 117/117/125
f 127/121/100 131/123/115 113/115/107 109/113/98
f 117/117/125 113/115/107 131/123/115 135/125/129
f 128/122/102 132/124/118 131/123/115 127/121/100
f 135/125/129 131/123/115 132/124/118 136/126/130
f 110/114/97 114/116/110 132/124/118 128/122/102
f 136/126/130 132/124/118 114/116/110 118/118/127
f 92/106/82 96/108/103 114/116/110 110/114/97
f 118/118/127 114/116/110 96/108/103 100/110/112
f 74/98/74 78/100/79 96/108/103 92/106/82
f 100/110/112 96/108/103 78/100/79 82/102/86
f 70/96/69 66/94/65 78/100/79 74/98/74
f 82/102/86 78/100/79 66/94/65 62/92/57
f 52/88/61 48/86/39 66/94/65 70/96/69
f 62/92/57 66/94/65 48/86/39 44/84/32
f 34/80/47 30/78/37 48/86/39 52/88/61
f 44/84/32 48/86/39 30/78/37 26/76/19
f 16/72/45 12/70/30 30/78/37 34/80/47
f 26/76/19 30/78/37 12/70/30 8/68/15
f 15/71/43 11/69/27 12/70/30 16/72/45
f 8/68/15 12/70/30 11/69/27 7/67/14
f 140/128/140 136/126/130 118/118/127 122/120/133
f 122/120/133 118/118/127 100/110/112 104/112/122
f 104/112/122 100/110/112 82/102/86 86/104/91
f 86/104/91 82/102/86 62/92/57 56/90/55
f 20/74/10 26/76/19 8/68/15 2/66/3
f 38/82/25 44/84/32 26/76/19 20/74/10
f 56/90/55 62/92/57 44/84/32 38/82/25
f 2/66/3 8/68/15 7/67/14 1/65/6
f 37/81/23 43/83/33 61/91/59 55/89/53
f 19/73/11 25/75/18 43/83/33 37/81/23
f 1/65/6 7/67/14 25/75/18 19/73/11
f 139/127/141 135/125/129 136/126/130 140/128/140
f 55/89/53 61/91/59 81/101/88 85/103/90
f 121/119/135 117/117/125 135/125/129 139/127/141
f 103/111/119 99/109/114 117/117/125 121/119/135
f 85/103/90 81/101/88 99/109/114 103/111/119
f 55/89/53 57/89/51 39/81/21 37/81/23
f 57/25/51 59/25/56 41/17/26 39/17/21
f 85/103/90 87/103/93 57/89/51 55/89/53
f 87/39/93 89/39/92 59/25/56 57/25/51
f 103/111/119 105/111/123 87/103/93 85/103/90
f 105/47/123 107/47/121 89/39/92 87/39/93
f 121/119/135 123/119/137 105/111/123 103/111/119
f 123/55/137 125/55/134 107/47/121 105/47/123
f 139/127/141 141/127/143 123/119/137 121/119/135
f 141/63/143 143/63/139 125/55/134 123/55/137
f 140/128/140 142/128/144 141/127/143 139/127/141
f 142/64/144 144/64/142 143/63/139 141/63/143
f 122/120/133 124/120/138 142/128/144 140/128/140
f 124/56/138 126/56/136 144/64/142 142/64/144
f 104/112/122 106/112/124 124/120/138 122/120/133
f 106/48/124 108/48/120 126/56/136 124/56/138
f 86/104/91 88/104/94 106/112/124 104/112/122
f 88/40/94 90/40/89 108/48/120 106/48/124
f 56/90/55 58/90/52 88/104/94 86/104/91
f 58/26/52 60/26/54 90/40/89 88/40/94
f 38/82/25 40/82/22 58/90/52 56/90/55
f 40/18/22 42/18/24 60/26/54 58/26/52
f 20/74/10 22/74/8 40/82/22 38/82/25
f 22/10/8 24/10/12 42/18/24 40/18/22
f 2/66/3 4/66/2 22/74/8 20/74/10
f 4/2/2 6/2/5 24/10/12 22/10/8
f 1/65/6 3/65/1 4/66/2 2/66/3
f 3/1/1 5/1/4 6/2/5 4/2/2
f 19/73/11 21/73/7 3/65/1 1/65/6
f 21/9/7 23/9/9 5/1/4 3/1/1
f 37/81/23 39/81/21 21/73/7 19/73/11
f 39/17/21 41/17/26 23/9/9 21/9/7
